<?xml version="1.0" encoding="UTF-8"?>
<svg version="1.1" xmlns="http://www.w3.org/2000/svg" width="1024" height="1024">
<path d="M0 0 C337.92 0 675.84 0 1024 0 C1024 337.92 1024 675.84 1024 1024 C686.08 1024 348.16 1024 0 1024 C0 686.08 0 348.16 0 0 Z " fill="#040300" transform="translate(0,0)"/>
<path d="M0 0 C1.34049507 -0.02081565 2.68098986 -0.04164895 4.02148438 -0.0625 C17.32416376 -0.11531461 26.06975335 2.42353281 36.1875 11.25 C43.21662886 18.68310178 44.89507796 27.18090522 44.65625 37.171875 C43.63052985 48.99045055 37.90597263 60.29455008 29.1875 68.25 C24.73533285 71.59801009 20.00967389 74.47193396 15.1875 77.25 C16.11949219 77.45753906 17.05148438 77.66507812 18.01171875 77.87890625 C32.76559634 81.44430235 45.85882967 87.23662746 54.1875 100.5625 C58.65767747 110.24035897 57.16587875 123.30837714 54.1875 133.25 C50.02684587 143.91764437 43.84624979 153.07751029 33.625 158.625 C16.86371955 165.79566729 1.17714727 165.77470843 -16.8125 165.5625 C-19.30207583 165.5509802 -21.79166037 165.54120351 -24.28125 165.53320312 C-36.48836225 165.47144964 -48.64289879 165.25507867 -60.8125 164.25 C-60.8125 163.59 -60.8125 162.93 -60.8125 162.25 C-59.7648451 161.35243049 -58.6728372 160.50625705 -57.5625 159.6875 C-52.03882683 155.13661947 -49.3203884 148.30429682 -48.61040115 141.23879528 C-48.57503628 140.52860902 -48.5396714 139.81842276 -48.50323486 139.0867157 C-48.44184893 137.86620498 -48.44184893 137.86620498 -48.37922287 136.62103748 C-48.34076878 135.74280166 -48.30231468 134.86456583 -48.26269531 133.9597168 C-48.22072651 133.03214664 -48.17875771 132.10457647 -48.13551712 131.14889812 C-47.68524545 120.39937341 -47.62911126 109.65201687 -47.609375 98.89453125 C-47.60654762 97.8340476 -47.60372025 96.77356396 -47.60080719 95.68094444 C-47.58599227 90.09320213 -47.57664574 84.50548455 -47.57226562 78.91772461 C-47.56673596 73.18079787 -47.54256382 67.44410305 -47.51429367 61.70724964 C-47.49563914 57.2538536 -47.49046068 52.80051395 -47.48892975 48.34708214 C-47.48592065 46.23131702 -47.47795173 44.11555247 -47.46474457 41.99982643 C-47.44758727 39.04633327 -47.44958528 36.09341607 -47.45605469 33.13989258 C-47.44223251 31.85472496 -47.44223251 31.85472496 -47.4281311 30.54359436 C-47.48790938 21.78050937 -49.16622955 14.04166907 -55.5 7.6875 C-59.8125 3.27870813 -59.8125 3.27870813 -59.8125 2.25 C-59.01255615 2.22494385 -58.2126123 2.1998877 -57.38842773 2.17407227 C-53.67552789 2.05623212 -49.96276937 1.93437925 -46.25 1.8125 C-44.99251953 1.77318359 -43.73503906 1.73386719 -42.43945312 1.69335938 C-36.05996609 1.48125367 -29.70249073 1.19253371 -23.3359375 0.73046875 C-15.55411735 0.18882843 -7.79907106 0.0307504 0 0 Z " fill="#C00E08" transform="translate(154.8125,398.75)"/>
<path d="M0 0 C39.53710289 -1.0597574 39.53710289 -1.0597574 53.86083984 10.15478516 C61.73682812 18.04514568 65.37757738 25.63907615 65.43896484 36.79931641 C65.38553949 42.53957336 64.98149999 47.64170528 63.25146484 53.11181641 C63.01814453 53.90974609 62.78482422 54.70767578 62.54443359 55.52978516 C58.5821028 67.19966352 49.74119841 74.29703496 39.25146484 80.11181641 C38.54634766 80.50369141 37.84123047 80.89556641 37.11474609 81.29931641 C35.25146484 82.11181641 35.25146484 82.11181641 32.25146484 82.11181641 C32.25146484 82.77181641 32.25146484 83.43181641 32.25146484 84.11181641 C33.34394531 83.95132813 33.34394531 83.95132813 34.45849609 83.78759766 C37.25146484 84.11181641 37.25146484 84.11181641 39.57568359 86.21728516 C50.34100723 100.25669069 56.95279547 115.97419766 61.95458984 132.85009766 C64.09790939 140.04941203 66.53883593 147.09608262 71.12646484 153.11181641 C73.25146484 156.11181641 73.25146484 156.11181641 73.06396484 158.16259766 C71.73813699 161.34330967 69.14930942 162.43106655 66.25146484 164.11181641 C60.34574773 166.08038878 53.47664821 166.31709172 47.60693359 164.12353516 C38.26142406 158.4716512 34.9484796 149.16943393 32.25146484 139.11181641 C31.5265798 136.13173347 30.8379551 133.14531514 30.15966797 130.15429688 C26.27625205 108.50189306 26.27625205 108.50189306 14.25146484 91.11181641 C11.96839803 90.37417472 11.96839803 90.37417472 9.55224609 89.94775391 C8.7456958 89.78581543 7.93914551 89.62387695 7.1081543 89.45703125 C6.49544678 89.34311035 5.88273926 89.22918945 5.25146484 89.11181641 C5.29337618 96.58291745 5.36593714 104.0532881 5.45898438 111.52392578 C5.48706614 114.06096797 5.50834373 116.59809558 5.52246094 119.13525391 C5.54406768 122.79975716 5.59081049 126.46324717 5.64208984 130.12744141 C5.64331848 131.24669006 5.64454712 132.36593872 5.64581299 133.519104 C5.79869068 141.89395925 6.65466394 152.06937491 13.00146484 158.23681641 C14.11521484 159.16494141 14.11521484 159.16494141 15.25146484 160.11181641 C15.25146484 160.77181641 15.25146484 161.43181641 15.25146484 162.11181641 C0.07146484 162.11181641 -15.10853516 162.11181641 -30.74853516 162.11181641 C-28.930592 157.56695851 -26.94085558 153.16422896 -24.86962891 148.73291016 C-23.1558196 144.72605983 -22.62223126 141.37575835 -22.60136414 137.02180481 C-22.59420883 135.99437164 -22.58705353 134.96693848 -22.5796814 133.90837097 C-22.57699249 132.78675064 -22.57430359 131.66513031 -22.5715332 130.50952148 C-22.56167641 128.73079651 -22.56167641 128.73079651 -22.55162048 126.9161377 C-22.53189381 122.98788087 -22.52022151 119.05963743 -22.51025391 115.13134766 C-22.50620423 113.77568733 -22.50208724 112.42002721 -22.49790382 111.06436729 C-22.47886164 104.69290823 -22.46462962 98.32146068 -22.45629185 91.94997865 C-22.44652832 84.61139672 -22.42022819 77.27311712 -22.37979096 69.93464166 C-22.34956022 64.25208694 -22.33481635 58.56961853 -22.33151084 52.886985 C-22.32916792 49.4979281 -22.32030758 46.10919453 -22.29504967 42.72022438 C-22.27067384 38.93360031 -22.27162113 35.14776268 -22.27856445 31.36108398 C-22.26575439 30.24958481 -22.25294434 29.13808563 -22.23974609 27.99290466 C-22.30222947 18.62076094 -24.68093519 12.26291637 -30.74853516 5.11181641 C-30.74853516 4.45181641 -30.74853516 3.79181641 -30.74853516 3.11181641 C-31.73853516 2.78181641 -32.72853516 2.45181641 -33.74853516 2.11181641 C-33.74853516 1.78181641 -33.74853516 1.45181641 -33.74853516 1.11181641 C-24.42848311 0.74390674 -15.10788915 0.42893771 -5.78424072 0.16900635 C-3.85609838 0.11483823 -1.92804549 0.05751236 0 0 Z " fill="#C00E08" transform="translate(246.74853515625,401.88818359375)"/>
<path d="M0 0 C15.18 0 30.36 0 46 0 C45.34 1.65 44.68 3.3 44 5 C40.89628851 14.31113447 43.43069429 24.71068182 45.75 33.9375 C46.02513428 35.07920654 46.30026855 36.22091309 46.58374023 37.3972168 C48.22472623 44.13068611 50.00860145 50.79950483 52 57.4375 C53.57923531 63.06352579 54.86954501 68.75836506 56.16235352 74.45629883 C57.2804919 79.30125752 58.6141476 83.96704726 60.23461914 88.66625977 C61.67984442 93.07292914 62.78829788 97.5713653 63.9375 102.0625 C64.19764893 103.06893555 64.45779785 104.07537109 64.72583008 105.11230469 C66.23984608 110.98490835 67.72461558 116.86447539 69.1875 122.75 C73.265507 142.02551984 73.265507 142.02551984 84 158 C84.66 158.33 85.32 158.66 86 159 C86 159.66 86 160.32 86 161 C69.83 161 53.66 161 37 161 C38.98 157.7 40.96 154.4 43 151 C45.08488118 141.22571835 42.52623632 126.05247264 38 117 C38 115.02 38 113.04 38 111 C26.12 111 14.24 111 2 111 C1.67 114.3 1.34 117.6 1 121 C0.82082031 122.01320313 0.64164062 123.02640625 0.45703125 124.0703125 C-0.15817223 128.01392452 -0.26259092 131.88892814 -0.3125 135.875 C-0.35600586 137.02162109 -0.35600586 137.02162109 -0.40039062 138.19140625 C-0.48345214 145.7180574 2.16812312 151.45613431 7.25 157 C7.77078125 157.5775 8.2915625 158.155 8.828125 158.75 C9.21484375 159.1625 9.6015625 159.575 10 160 C9 161 9 161 6.04077148 161.11352539 C4.74727783 161.10828857 3.45378418 161.10305176 2.12109375 161.09765625 C1.09110008 161.09553383 1.09110008 161.09553383 0.04029846 161.09336853 C-2.16067801 161.08775479 -4.36155409 161.07520007 -6.5625 161.0625 C-8.05143083 161.05748676 -9.54036324 161.05292355 -11.02929688 161.04882812 C-14.68623075 161.03778093 -18.34310558 161.02050713 -22 161 C-22.05728849 156.61022961 -22.0332872 153.30371213 -20.3125 149.25 C-15.65428076 137.19439738 -13.03538251 124.39246883 -10.22460938 111.8046875 C-7.93094192 101.57673234 -5.49496842 91.38312982 -3.0625 81.1875 C-2.84405426 80.27145996 -2.62560852 79.35541992 -2.40054321 78.41162109 C0.45189955 66.45294268 3.31058247 54.49570841 6.19897461 42.5456543 C6.80502059 40.03174528 7.40501141 37.51654708 8 35 C8.19215088 34.19183838 8.38430176 33.38367676 8.58227539 32.55102539 C10.73895647 23.22595639 11.15358154 15.96775163 6.58203125 7.2890625 C4.65788172 4.35842911 4.65788172 4.35842911 0 0 Z " fill="#C10E08" transform="translate(345,402)"/>
<path d="M0 0 C17.16 0 34.32 0 52 0 C50.02 2.31 48.04 4.62 46 7 C40.33776961 14.34559618 40.84735719 21.78098823 40.82299805 30.68603516 C40.81642685 31.7390683 40.80985565 32.79210144 40.80308533 33.87704468 C40.78344203 37.34771813 40.77170942 40.81834848 40.76171875 44.2890625 C40.75764322 45.47999889 40.7535677 46.67093529 40.74936867 47.89796066 C40.72854566 54.20231704 40.71422792 60.50665189 40.70483398 66.81103516 C40.6937804 73.29695195 40.65938119 79.78252469 40.61966228 86.26832008 C40.59342517 91.27860113 40.58513581 96.28880105 40.58155251 101.29914474 C40.57670458 103.68875831 40.56514234 106.0783687 40.54651451 108.46791458 C39.78786383 129.65583663 39.78786383 129.65583663 49 148 C55.53191805 151.86582905 62.43047561 152.14724229 69.75390625 150.30859375 C75.48221232 148.2682582 78.61241597 146.03004901 82 141 C82.556875 140.278125 83.11375 139.55625 83.6875 138.8125 C87.50340452 130.63556175 87.29699992 121.1953825 87.265625 112.34765625 C87.26835419 111.14945251 87.27108337 109.95124878 87.27389526 108.71673584 C87.27793085 104.83187652 87.2653396 100.947328 87.25 97.0625 C87.24724169 95.72390805 87.24478137 94.38531545 87.24261475 93.04672241 C87.20872661 75.2902362 86.92354252 57.55306721 86.125 39.8125 C86.08588501 38.90388214 86.04677002 37.99526428 86.00646973 37.05911255 C85.8926295 34.50358672 85.76588745 31.9491208 85.6328125 29.39453125 C85.59936737 28.66901062 85.56592224 27.94348999 85.53146362 27.19598389 C84.86726744 15.7209421 82.28520503 8.28520503 74 0 C86.54 0 99.08 0 112 0 C110.02 2.31 108.04 4.62 106 7 C98.4384872 17.92218515 99.70676316 31.39345569 99.69503975 44.13064384 C99.69134151 47.36521605 99.67452186 50.59949102 99.65428162 53.83399963 C99.59919421 63.02314711 99.56821967 72.21233669 99.54370117 81.40161133 C99.52775123 87.04244209 99.4974608 92.68305884 99.45893669 98.32377815 C99.44735887 100.46018247 99.44135698 102.59662515 99.44125557 104.73306084 C99.44008839 122.77313998 98.51050268 138.82909704 85.25 152.3125 C75.90430984 161.44582073 67.55993718 164.48493118 54.43359375 164.3359375 C43.16124501 163.23306834 31.04494952 155.8032359 23.5 147.5 C13.02001524 133.80247606 12.42776523 117.85163996 12.5141449 101.3187294 C12.53158608 97.87903247 12.52380436 94.44016255 12.5098877 91.00045776 C12.48470687 83.70858017 12.49003231 76.41690328 12.5 69.125 C12.5115518 60.64751042 12.51034739 52.17042774 12.47593689 43.69298935 C12.46886717 40.31381889 12.48548176 36.93530166 12.50305176 33.55618286 C12.4973435 31.47902071 12.49052602 29.40186121 12.48242188 27.32470703 C12.49373642 26.39363632 12.50505096 25.46256561 12.51670837 24.50328064 C12.45070545 17.40761913 10.82707504 11.96120634 5.859375 6.7578125 C5.16328125 6.21898437 4.4671875 5.68015625 3.75 5.125 C2.46990544 4.12054624 1.21060834 3.08719681 0 2 C0 1.34 0 0.68 0 0 Z " fill="#C10E08" transform="translate(516,402)"/>
<path d="M0 0 C1.96873176 0.02010233 3.93748342 0.03834648 5.90625 0.0546875 C10.68799874 0.09837193 15.46877532 0.16719169 20.25 0.25 C20.68104622 6.51195117 21.10783414 12.77418241 21.53173828 19.03662109 C21.67627772 21.16461678 21.8217725 23.2925478 21.96826172 25.42041016 C22.17930538 28.48843937 22.38685115 31.55668882 22.59375 34.625 C22.65937134 35.56802979 22.72499268 36.51105957 22.79260254 37.48266602 C23.14420181 42.7531179 23.31494474 47.96782748 23.25 53.25 C18.34493839 48.4811901 14.39652356 43.63585544 10.90161133 37.78027344 C7.16637019 31.53409099 3.223586 25.59622806 -1.4375 20 C-2.07764038 19.21399414 -2.07764038 19.21399414 -2.73071289 18.41210938 C-6.56138265 13.95577086 -10.89898047 10.78456616 -16.75 9.6875 C-21.95001973 10.6625037 -25.19077032 13.23821342 -28.3515625 17.31640625 C-36.15346746 29.45937114 -40.10122879 43.73687536 -39.98046875 58.078125 C-39.98001053 58.98898865 -39.97955231 59.89985229 -39.9790802 60.83831787 C-39.97607773 62.75436719 -39.96825218 64.67041451 -39.95581055 66.58642578 C-39.9376365 69.47828088 -39.93530084 72.36981261 -39.93554688 75.26171875 C-40.07274779 94.42832698 -40.07274779 94.42832698 -36.625 113.1875 C-36.29894775 114.32010254 -36.29894775 114.32010254 -35.96630859 115.47558594 C-32.82718678 125.85765712 -28.98110482 135.91492807 -19.75 142.25 C-14.60252874 144.82373563 -5.70004989 143.99764623 -0.19140625 142.6015625 C7.23093439 139.21593344 11.45817091 132.84113693 14.4453125 125.484375 C17.27367523 117.63086295 18.16199329 109.49107211 19.25 101.25 C19.91 101.25 20.57 101.25 21.25 101.25 C24.05949726 106.82428104 24.76712975 111.28950167 24.6875 117.5 C24.67847656 118.33974365 24.66945313 119.1794873 24.66015625 120.04467773 C24.32530365 132.09123255 20.0065652 139.25104123 12.25 148.25 C11.59 149.24 10.93 150.23 10.25 151.25 C9.59 151.25 8.93 151.25 8.25 151.25 C7.92 152.24 7.59 153.23 7.25 154.25 C5.140625 156.22265625 5.140625 156.22265625 2.5 158.3125 C1.63890625 159.00472656 0.7778125 159.69695312 -0.109375 160.41015625 C-5.99901834 164.51373911 -11.06563496 164.61523466 -18.0625 164.625 C-18.97451172 164.64949219 -19.88652344 164.67398438 -20.82617188 164.69921875 C-31.76872341 164.74628349 -38.84787413 159.45684576 -46.75 152.25 C-66.81306482 131.61777022 -70.24398067 99.73888832 -70.10571289 72.58764648 C-69.94614273 63.80193545 -69.2485678 55.71497538 -66.75 47.25 C-66.4715625 46.21617187 -66.193125 45.18234375 -65.90625 44.1171875 C-61.51607959 29.3192855 -51.91695044 15.10501904 -38.75 6.6875 C-25.7154865 0.10842001 -14.3230938 -0.2555973 0 0 Z " fill="#C00E08" transform="translate(489.75,401.75)"/>
<path d="M0 0 C2.82649499 1.87646223 4.27647661 3.41785176 5.09375 6.73046875 C5.26197266 7.88095703 5.26197266 7.88095703 5.43359375 9.0546875 C4.14423456 10.20311673 2.85202796 11.34834977 1.55859375 12.4921875 C0.83929687 13.13027344 0.12 13.76835937 -0.62109375 14.42578125 C-2.99084398 16.41009018 -4.2447102 17.00350858 -7.31640625 17.4921875 C-10.93458166 17.00512543 -11.26452367 16.62916144 -13.56640625 14.0546875 C-15.71888268 11.70602181 -16.36565232 11.10905836 -19.56640625 10.2421875 C-24.13573 11.47971268 -26.15347894 14.07622997 -28.56640625 18.0546875 C-29.97757188 21.31212817 -30.79837269 24.59390977 -31.56640625 28.0546875 C-31.82164062 29.20453125 -32.076875 30.354375 -32.33984375 31.5390625 C-33.64146309 37.75075084 -34.72537766 43.9518497 -35.56640625 50.2421875 C-36.4296994 56.65835776 -37.88170263 62.81118367 -39.56640625 69.0546875 C-38.91043457 69.03897705 -38.25446289 69.0232666 -37.57861328 69.00708008 C-34.61629809 68.94485098 -31.65412015 68.90573582 -28.69140625 68.8671875 C-27.65886719 68.84205078 -26.62632812 68.81691406 -25.5625 68.79101562 C-24.08330078 68.77651367 -24.08330078 68.77651367 -22.57421875 68.76171875 C-21.20740967 68.73815308 -21.20740967 68.73815308 -19.81298828 68.71411133 C-19.07161621 68.82650146 -18.33024414 68.9388916 -17.56640625 69.0546875 C-15.56640625 72.0546875 -15.56640625 72.0546875 -15.87890625 75.6796875 C-16.56640625 79.0546875 -16.56640625 79.0546875 -17.56640625 80.0546875 C-20.06640625 80.1796875 -20.06640625 80.1796875 -22.56640625 80.0546875 C-22.89640625 79.7246875 -23.22640625 79.3946875 -23.56640625 79.0546875 C-26.42908192 78.98143582 -29.26712525 78.96230545 -32.12890625 78.9921875 C-32.93521484 78.99669922 -33.74152344 79.00121094 -34.57226562 79.00585938 C-36.57034381 79.01768232 -38.56838408 79.03561836 -40.56640625 79.0546875 C-44.03536625 100.31503665 -47.45847459 121.56888528 -50.25390625 142.9296875 C-57.71821032 199.58019599 -57.71821032 199.58019599 -77.6484375 216.81640625 C-85.36681846 222.73693141 -92.18037323 225.75601881 -101.97265625 225.55859375 C-104.94146635 224.98182191 -106.4047513 224.15144288 -108.56640625 222.0546875 C-109.39271867 217.92312542 -108.74044074 216.33419744 -106.50390625 212.7421875 C-103.56640625 210.0546875 -103.56640625 210.0546875 -100.06640625 208.8671875 C-96.56640625 209.0546875 -96.56640625 209.0546875 -93.62890625 211.4921875 C-92.94828125 212.3378125 -92.26765625 213.1834375 -91.56640625 214.0546875 C-88.26341682 212.87504842 -86.45332897 211.11407406 -84.56982422 208.18212891 C-82.26624127 203.29808466 -81.53437477 197.82090939 -80.50390625 192.5546875 C-80.01302083 190.1484375 -79.52213542 187.7421875 -79.03125 185.3359375 C-78.79092041 184.12139893 -78.55059082 182.90686035 -78.30297852 181.65551758 C-77.83227747 179.35443383 -77.33288604 177.05891229 -76.79663086 174.7722168 C-74.55652447 165.16414383 -73.52561784 155.55829799 -72.54553223 145.76071167 C-70.9651433 130.0800319 -69.05571753 114.5146738 -66.31640625 98.9921875 C-66.18575775 98.25062408 -66.05510925 97.50906067 -65.92050171 96.74502563 C-63.75137454 84.52705337 -63.75137454 84.52705337 -62.56640625 80.0546875 C-68.64234187 79.94217017 -74.53086077 80.36208392 -80.56640625 81.0546875 C-80.26815415 76.87915811 -79.37811771 73.40333181 -76.57421875 70.1796875 C-71.89644099 67.55867584 -65.74613767 68.67619562 -60.56640625 69.0546875 C-60.38464844 67.25451172 -60.38464844 67.25451172 -60.19921875 65.41796875 C-59.47823329 58.99315929 -58.49139928 52.62055427 -57.44140625 46.2421875 C-57.26609375 45.04787109 -57.09078125 43.85355469 -56.91015625 42.62304688 C-54.61471055 28.93235288 -47.97207217 18.01642219 -36.77929688 9.73193359 C-25.73519109 1.88087043 -13.99500158 -5.15493209 0 0 Z " fill="#C10E08" transform="translate(748.56640625,392.9453125)"/>
<path d="M0 0 C5.23042699 3.12756367 8.31048431 7.11895293 10.25 12.9375 C10.98191613 20.86189964 10.17266674 27.07031291 5.328125 33.48046875 C-2.96249808 43.15762707 -11.42217225 46.84828285 -23.4375 50.6875 C-24.64728516 51.08582031 -25.85707031 51.48414063 -27.10351562 51.89453125 C-36.71815742 55.03031824 -36.71815742 55.03031824 -41.75 55.9375 C-42.29949479 63.96622943 -41.12355107 69.67555874 -37.75 76.9375 C-37.42 77.9275 -37.09 78.9175 -36.75 79.9375 C-34.83333333 81.10416667 -34.83333333 81.10416667 -32.75 81.9375 C-31.76 82.4325 -31.76 82.4325 -30.75 82.9375 C-21.8829139 84.19287599 -15.08371423 81.92565479 -7.75 76.9375 C-2.74890403 72.4414816 0.97889734 67.22447785 4.2421875 61.37109375 C4.57476563 60.89800781 4.90734375 60.42492187 5.25 59.9375 C5.91 59.9375 6.57 59.9375 7.25 59.9375 C5.39373022 74.40360244 -1.6828662 84.86153884 -12.75 93.9375 C-21.91514457 100.43102348 -29.63419351 101.90956127 -40.75 100.9375 C-50.23836635 98.09376447 -57.57292098 89.48569735 -62.25 81.125 C-67.9753985 70.10360789 -67.83128311 53.99718735 -64.69140625 42.15234375 C-58.80546413 24.22927108 -46.03637633 9.18413482 -29.375 0.625 C-20.73680632 -3.39622809 -8.83714267 -4.07765282 0 0 Z " fill="#C10E08" transform="translate(838.75,463.0625)"/>
<path d="M0 0 C15.18 0 30.36 0 46 0 C44.02 2.64 42.04 5.28 40 8 C37.7239443 10.7614923 37.7239443 10.7614923 38.15234375 13.6015625 C39.25558563 18.02469815 40.86166432 22.15153873 42.5625 26.375 C42.89185547 27.20644531 43.22121094 28.03789062 43.56054688 28.89453125 C44.36844762 30.93184618 45.1817011 32.96684442 46 35 C49.36852497 30.69281491 52.6973327 26.35784475 56 22 C56.67160156 21.1234375 57.34320312 20.246875 58.03515625 19.34375 C61.22253911 14.97302346 61.22253911 14.97302346 62.125 9.75 C60.8577884 6.65237165 59.17460243 4.52534476 57 2 C57 1.34 57 0.68 57 0 C68.22 0 79.44 0 91 0 C89.21469838 3.57060324 88.5554974 4.64173233 85.6875 7 C76.55210347 14.75427101 67.62649219 22.72857812 60 32 C59.56461914 32.51240234 59.12923828 33.02480469 58.68066406 33.55273438 C57.24588655 35.24847005 55.83942704 36.96454704 54.4375 38.6875 C53.75554565 39.48982056 53.75554565 39.48982056 53.05981445 40.30834961 C51.02467003 42.87560985 49.99556641 44.47240256 50.0234375 47.7890625 C50.50683594 49.37847656 50.50683594 49.37847656 51 51 C51.21760986 51.71551025 51.43521973 52.43102051 51.65942383 53.16821289 C52.45538871 55.69290999 53.3104007 58.18986202 54.1875 60.6875 C54.49776123 61.5729248 54.80802246 62.45834961 55.12768555 63.37060547 C59.09825981 74.53604709 59.09825981 74.53604709 66 84 C72.18569617 84.53324967 76.32118275 83.43377882 82 81 C81.42912692 87.85047701 79.57341388 93.49257109 74.5625 98.375 C68.9585544 101.9287216 64.4801349 102.29030829 58 102.1875 C57.16364014 102.18105469 56.32728027 102.17460938 55.46557617 102.16796875 C48.61319964 102.08391468 41.82002582 101.68567585 35 101 C36.36983503 97.83884224 36.9890638 97.0072908 40 95 C40.68876245 90.0028086 39.09774263 86.11770692 37.125 81.625 C34.95329115 76.46893061 33.12032911 71.48961263 32 66 C31.34 66 30.68 66 30 66 C29.7628125 66.53625 29.525625 67.0725 29.28125 67.625 C27.03517341 71.78845905 23.97369694 75.38480917 21.09375 79.125 C17.855053 83.57216604 16.5590329 86.39506658 16.6640625 92.03515625 C17.18313367 95.07111904 18.93667852 96.80772093 21 99 C21 99.66 21 100.32 21 101 C9.12 101 -2.76 101 -15 101 C-12.03739951 98.03739951 -9.10796715 95.13099248 -6.0390625 92.29296875 C-5.31976562 91.62330078 -4.60046875 90.95363281 -3.859375 90.26367188 C-2.37982594 88.88888109 -0.89808148 87.51644889 0.5859375 86.14648438 C5.38316014 81.67050433 9.74282628 76.98673744 14 72 C15.0151253 70.87089963 16.03321077 69.74445136 17.0546875 68.62109375 C17.9952872 67.56033503 18.93539934 66.49914376 19.875 65.4375 C20.3596875 64.91220703 20.844375 64.38691406 21.34375 63.84570312 C24.72944533 59.97295944 25.98318798 57.14447851 26 52 C25.22393057 49.23154867 24.41301034 46.81220922 23.3125 44.1875 C23.03140381 43.48173828 22.75030762 42.77597656 22.46069336 42.04882812 C21.90186609 40.65007723 21.33639487 39.25395877 20.76367188 37.86083984 C19.83028159 35.58644702 18.94997118 33.29263388 18.0625 31 C17.37732951 29.33237431 16.68948247 27.66584752 16 26 C15.75668945 25.38592285 15.51337891 24.7718457 15.26269531 24.13916016 C10.33625247 10.97477201 10.33625247 10.97477201 0 2 C0 1.34 0 0.68 0 0 Z " fill="#C10E08" transform="translate(848,462)"/>
<path d="M0 0 C-0.1853833 0.96719971 -0.3707666 1.93439941 -0.56176758 2.9309082 C-2.41411664 12.66044404 -4.11202577 22.40927016 -5.6875 32.1875 C-5.81050476 32.94813751 -5.93350952 33.70877502 -6.0602417 34.49246216 C-10.84795101 64.1512365 -15.41275737 93.86104678 -19.5 123.625 C-19.66000488 124.75929443 -19.82000977 125.89358887 -19.98486328 127.06225586 C-20.87507419 133.74708992 -21.18036134 140.25815988 -21 147 C-18.63116608 147.66990497 -18.63116608 147.66990497 -16 148 C-13.34650735 146.21043519 -11.25702393 144.25702393 -9 142 C-9.301686 150.14552187 -12.46107683 156.53892117 -18.30859375 162.2578125 C-23.18863272 165.41673468 -28.41259666 164.88967098 -34 164 C-39.78713043 161.38008979 -42.49934037 157.76259493 -45 152 C-46.26202361 141.75076413 -44.25418369 131.29916321 -42.625 121.1875 C-42.1750521 118.32753495 -41.73110245 115.46666579 -41.2890625 112.60546875 C-41.17773483 111.89036636 -41.06640717 111.17526398 -40.95170593 110.43849182 C-40.20948063 105.59636509 -39.59992165 100.75110422 -39.05859375 95.8828125 C-37.96308854 86.11574377 -36.44188956 76.4184447 -34.91333008 66.71118164 C-34.43116481 63.6472428 -33.95451078 60.582481 -33.47851562 57.51757812 C-33.1721928 55.55724198 -32.86556383 53.59695365 -32.55859375 51.63671875 C-32.41691269 50.72637375 -32.27523163 49.81602875 -32.1292572 48.87809753 C-31.99564285 48.03233658 -31.8620285 47.18657562 -31.72436523 46.31518555 C-31.60826401 45.57592331 -31.49216278 44.83666107 -31.37254333 44.07499695 C-31 42 -31 42 -30.46302795 39.93293762 C-29.75955365 36.99624245 -29.86852104 34.13771824 -29.875 31.125 C-29.87242187 29.93132812 -29.86984375 28.73765625 -29.8671875 27.5078125 C-29.99066604 24.24652649 -30.38336743 21.20061666 -31 18 C-9.52791878 0 -9.52791878 0 0 0 Z " fill="#C00E08" transform="translate(777,400)"/>
<path d="M0 0 C1.46663086 -0.01836914 1.46663086 -0.01836914 2.96289062 -0.03710938 C13.10840727 -0.05749554 21.75019772 1.57569288 29.203125 8.9296875 C37.860917 18.72223865 37.01288973 30.7439068 36.4375 43.1875 C35.65767395 51.03032204 32.56758027 59.77823067 26.5625 65.125 C17.05735196 71.39839771 7.50135904 71.87899119 -3.5625 71.1875 C-6.39944957 70.50485901 -8.05789774 69.73796807 -10.5625 68.1875 C-11.95476892 65.40296217 -11.6897341 63.12490664 -11.69189453 60.00952148 C-11.69504669 58.71155136 -11.69819885 57.41358124 -11.70144653 56.07627869 C-11.69965689 54.6537167 -11.69760597 53.23115502 -11.6953125 51.80859375 C-11.69598578 50.35653161 -11.69695601 48.90446959 -11.69821167 47.45240784 C-11.69968704 44.40844653 -11.69753893 41.36451454 -11.69287109 38.32055664 C-11.68716882 34.4106307 -11.69045696 30.50077331 -11.69644356 26.59084988 C-11.70004919 23.5926715 -11.69891067 20.5945095 -11.69631577 17.59633064 C-11.69564676 16.15416519 -11.69647399 14.71199826 -11.69879532 13.26983452 C-11.70132238 11.25858461 -11.69679079 9.24732952 -11.69189453 7.23608398 C-11.69109894 6.08961899 -11.69030334 4.94315399 -11.68948364 3.76194763 C-11.4018856 -2.06877274 -4.57126931 0.00293218 0 0 Z " fill="#050300" transform="translate(145.5625,482.8125)"/>
<path d="M0 0 C22.81395349 0 22.81395349 0 31 8 C35.32470031 15.30725225 35.24070501 21.88321292 35.3125 30.1875 C35.34150391 31.28642578 35.37050781 32.38535156 35.40039062 33.51757812 C35.47864827 43.61281485 32.9406025 50.90429106 25.953125 58.2734375 C17.9574894 65.34157937 9.9618563 64.31488398 -1 65 C-0.67 43.55 -0.34 22.1 0 0 Z " fill="#050300" transform="translate(135,409)"/>
<path d="M0 0 C6.51026461 0.09278287 11.38784877 1.33341895 16.5625 5.375 C25.36508741 15.6072047 26.57154522 26.11273676 25.7890625 39.37255859 C24.57911403 50.06652126 19.82703102 59.24900927 12.1875 66.6875 C7.39228252 69.77013981 3.14313184 71.45513709 -2.5847168 71.40722656 C-3.85613525 71.3965918 -5.12755371 71.38595703 -6.4375 71.375 C-6.46062545 62.26540835 -6.47841612 53.15582674 -6.48931217 44.0462122 C-6.49454056 39.81668629 -6.5016374 35.5871804 -6.51293945 31.35766602 C-6.52376991 27.27931457 -6.52977717 23.20098243 -6.53237724 19.12261772 C-6.53423121 17.56322361 -6.53785127 16.0038306 -6.54323006 14.44444466 C-6.55044262 12.26770838 -6.55149085 10.09105286 -6.55102539 7.91430664 C-6.553246 6.67298477 -6.55546661 5.4316629 -6.55775452 4.15272522 C-6.35152765 -0.61085104 -4.31020179 0.14275828 0 0 Z " fill="#050300" transform="translate(258.4375,410.625)"/>
<path d="M0 0 C0.95627792 -0.0066568 1.91255585 -0.0133136 2.89781189 -0.02017212 C4.91240524 -0.03026518 6.92703179 -0.03499018 8.94165039 -0.03466797 C12.02090251 -0.03905333 15.09873433 -0.07544181 18.17773438 -0.11328125 C20.13931803 -0.11914769 22.10090847 -0.12311824 24.0625 -0.125 C24.98031754 -0.13937103 25.89813507 -0.15374207 26.84376526 -0.16854858 C31.00463017 -0.13881821 33.38497065 0.00071199 37.04858398 2.11865234 C39.34891473 4.78034222 39.52433325 6.75915481 39.53125 10.23828125 C38.61276479 13.6398437 37.65433119 14.95945595 34.96484375 17.3359375 C30.92957011 18.09627527 26.92700582 17.98785282 22.83203125 17.9296875 C21.04975632 17.92974792 21.04975632 17.92974792 19.23147583 17.92980957 C16.72148342 17.92444991 14.21149169 17.9068485 11.70166016 17.87792969 C7.84746398 17.83602036 3.99501087 17.83686453 0.140625 17.84375 C-2.29558513 17.83326005 -4.73178621 17.82032301 -7.16796875 17.8046875 C-8.32628204 17.80448608 -9.48459534 17.80428467 -10.67800903 17.80407715 C-11.74606781 17.78816528 -12.81412659 17.77225342 -13.91455078 17.75585938 C-14.85734894 17.74744019 -15.80014709 17.739021 -16.77151489 17.73034668 C-17.51851654 17.60019165 -18.26551819 17.47003662 -19.03515625 17.3359375 C-21.39601747 13.79464566 -21.60785203 12.50843532 -21.03515625 8.3359375 C-15.63898389 0.08296801 -9.05859817 0.02201506 0 0 Z " fill="#BE0E08" transform="translate(607.03515625,583.6640625)"/>
<path d="M0 0 C0.33 0 0.66 0 1 0 C1.24234375 1.08796875 1.4846875 2.1759375 1.734375 3.296875 C3.93952236 13.1027056 3.93952236 13.1027056 6.9375 22.6875 C8.95620435 28.44721598 10.33362342 34.30654541 11.6875 40.25 C11.90204834 41.18545654 12.11659668 42.12091309 12.33764648 43.0847168 C13.52911437 48.4294372 14.31459773 53.51678181 15 59 C5.76 59 -3.48 59 -13 59 C-11.87693091 51.13851638 -11.87693091 51.13851638 -10.984375 47.34765625 C-10.78755127 46.50009766 -10.59072754 45.65253906 -10.38793945 44.77929688 C-10.07215942 43.43448242 -10.07215942 43.43448242 -9.75 42.0625 C-7.583963 32.71912363 -5.58536803 23.34962196 -3.70019531 13.94555664 C-2.72897558 9.17470232 -1.69426458 4.57992983 0 0 Z " fill="#0A0300" transform="translate(364,442)"/>
<path d="M0 0 C2.57253899 2.09865023 3.777816 3.70933563 4.34765625 7.01953125 C4.68946081 15.50520094 1.97108869 22.67578366 -3.3515625 29.21875 C-9.09172095 35.42138568 -15.93270835 37.80873262 -24 40 C-24.66 40 -25.32 40 -26 40 C-23.73775887 26.8135155 -20.53936896 10.49394989 -9.4375 1.75 C-5.7953286 -0.10419635 -3.99418481 -0.88759662 0 0 Z " fill="#080400" transform="translate(823,470)"/>
<path d="M0 0 C1.4379744 -0.00642769 1.4379744 -0.00642769 2.90499878 -0.01298523 C4.92379976 -0.01870966 6.94262137 -0.01924276 8.96142578 -0.01489258 C12.05146204 -0.01172206 15.14054996 -0.03525188 18.23046875 -0.06054688 C20.19531129 -0.06281898 22.16015641 -0.06352378 24.125 -0.0625 C25.04797882 -0.07170975 25.97095764 -0.08091949 26.92190552 -0.09040833 C33.33807323 -0.04400461 33.33807323 -0.04400461 36.54248047 1.82348633 C37.22914795 2.55474731 37.22914795 2.55474731 37.9296875 3.30078125 C37.5996875 4.29078125 37.2696875 5.28078125 36.9296875 6.30078125 C36.52272644 5.81378754 36.11576538 5.32679382 35.69647217 4.82504272 C33.51287931 2.94118753 32.50926306 2.92161482 29.66113281 2.91259766 C28.37399384 2.89841293 28.37399384 2.89841293 27.06085205 2.88394165 C26.135849 2.89001434 25.21084595 2.89608704 24.2578125 2.90234375 C22.82414337 2.89803848 22.82414337 2.89803848 21.36151123 2.89364624 C19.33735564 2.89160389 17.31318039 2.89714567 15.2890625 2.90966797 C12.20527354 2.92564866 9.12280933 2.90986142 6.0390625 2.890625 C4.07030962 2.89260878 2.10155757 2.89645524 0.1328125 2.90234375 C-0.78409363 2.89627106 -1.70099976 2.89019836 -2.64569092 2.88394165 C-8.19618093 2.94422422 -12.17143113 3.62070875 -17.0703125 6.30078125 C-18.42470918 9.0095746 -18.13532701 11.31011393 -18.0703125 14.30078125 C-10.57734695 14.40203366 -3.08455717 14.47218452 4.40893555 14.52050781 C6.95913282 14.54064822 9.50928378 14.56796222 12.05932617 14.60253906 C15.72065647 14.65094864 19.38137732 14.67372599 23.04296875 14.69140625 C24.1867952 14.71205139 25.33062164 14.73269653 26.5091095 14.75396729 C27.56998276 14.75426941 28.63085602 14.75457153 29.72387695 14.75488281 C30.65875443 14.76376526 31.5936319 14.77264771 32.55683899 14.78179932 C35.10549393 14.51037006 35.10549393 14.51037006 36.75505066 12.2723999 C37.14268082 11.62176575 37.53031097 10.97113159 37.9296875 10.30078125 C37.1796875 15.05078125 37.1796875 15.05078125 34.9296875 17.30078125 C32.65258789 17.56147766 32.65258789 17.56147766 29.77734375 17.57543945 C28.16557251 17.58973747 28.16557251 17.58973747 26.52124023 17.60432434 C25.35665283 17.60341293 24.19206543 17.60250153 22.9921875 17.6015625 C21.80117432 17.60584763 20.61016113 17.61013275 19.38305664 17.61454773 C16.86117184 17.620299 14.33927045 17.62078546 11.81738281 17.61645508 C7.9456777 17.6132943 4.07473558 17.63674841 0.203125 17.66210938 C-2.24218653 17.66438208 -4.68750013 17.665086 -7.1328125 17.6640625 C-8.2973999 17.67327225 -9.4619873 17.68248199 -10.66186523 17.69197083 C-12.27363647 17.68262764 -12.27363647 17.68262764 -13.91796875 17.6730957 C-15.3412146 17.67403984 -15.3412146 17.67403984 -16.79321289 17.67500305 C-17.54465576 17.55150986 -18.29609863 17.42801666 -19.0703125 17.30078125 C-21.43117372 13.75948941 -21.64300828 12.47327907 -21.0703125 8.30078125 C-15.65924934 0.02503759 -9.07811287 -0.00900379 0 0 Z " fill="#D30F09" transform="translate(607.0703125,583.69921875)"/>
<path d="M0 0 C2.02878189 3.04317283 2.24986005 3.61172986 2.24723816 7.02256775 C2.25143265 7.83920395 2.25562714 8.65584015 2.25994873 9.4972229 C2.25432922 10.39009003 2.24870972 11.28295715 2.24291992 12.20288086 C2.24481827 13.14655014 2.24671661 14.09021942 2.24867249 15.06248474 C2.25238916 18.19668787 2.24165013 21.33066099 2.23046875 24.46484375 C2.22927565 26.6546679 2.22882406 28.84449256 2.2290802 31.03431702 C2.22751297 35.64034197 2.2192151 40.24628948 2.20581055 44.85229492 C2.18899039 50.70077365 2.18499141 56.54916591 2.18575573 62.39766598 C2.18548076 66.93214211 2.17994506 71.46660003 2.17275429 76.00107002 C2.16961073 78.15321274 2.16761052 80.30535748 2.16686058 82.45750237 C2.1591074 93.0972561 2.0632695 103.72625379 1.61450195 114.35766602 C1.58429301 115.20366584 1.55408407 116.04966566 1.52295971 116.92130184 C1.23663507 122.76336493 1.23663507 122.76336493 -1 125 C-1.03087819 108.85253936 -0.95081155 92.709016 -0.78125 76.5625 C-0.75872445 74.33235783 -0.7363064 72.10221458 -0.71398926 69.87207031 C-0.65586856 64.09213153 -0.59631946 58.31220837 -0.53643799 52.5322876 C-0.47522539 46.59835699 -0.41541185 40.66441229 -0.35546875 34.73046875 C-0.2383224 23.15363189 -0.11966193 11.57681111 0 0 Z " fill="#D21109" transform="translate(108,420)"/>
<path d="M0 0 C15.18 0 30.36 0 46 0 C44 5 44 5 42 6 C42.33 4.68 42.66 3.36 43 2 C30.79 2 18.58 2 6 2 C7.32 4.31 8.64 6.62 10 9 C9.67 9.66 9.34 10.32 9 11 C8.60167969 10.45730469 8.20335937 9.91460937 7.79296875 9.35546875 C7.26316406 8.64003906 6.73335938 7.92460937 6.1875 7.1875 C5.66542969 6.47980469 5.14335937 5.77210938 4.60546875 5.04296875 C2.86930184 2.75024046 2.86930184 2.75024046 0 0 Z " fill="#D01009" transform="translate(345,402)"/>
<path d="M0 0 C12.54 0 25.08 0 38 0 C32 7 32 7 30 8 C31.875 4.125 31.875 4.125 33 3 C24.09 3 15.18 3 6 3 C7.32 4.65 8.64 6.3 10 8 C9.67 8.66 9.34 9.32 9 10 C8.60167969 9.52949219 8.20335937 9.05898438 7.79296875 8.57421875 C7.26316406 7.95160156 6.73335937 7.32898438 6.1875 6.6875 C5.66542969 6.07261719 5.14335938 5.45773437 4.60546875 4.82421875 C3.13668249 3.15530589 1.57203741 1.57203741 0 0 Z " fill="#D21009" transform="translate(590,402)"/>
<path d="M0 0 C0.33 0.66 0.66 1.32 1 2 C0.525625 2.86625 0.05125 3.7325 -0.4375 4.625 C-2.45512748 8.98307535 -2.53034373 11.22690639 -2 16 C-0.12230858 18.84920053 -0.12230858 18.84920053 2 21 C2 21.66 2 22.32 2 23 C-2.43744539 23.05793591 -6.87479389 23.09357467 -11.3125 23.125 C-12.57513672 23.14175781 -13.83777344 23.15851562 -15.13867188 23.17578125 C-16.95141602 23.18544922 -16.95141602 23.18544922 -18.80078125 23.1953125 C-19.91622314 23.20578613 -21.03166504 23.21625977 -22.1809082 23.22705078 C-25 23 -25 23 -28 21 C-15.625 20.505 -15.625 20.505 -3 20 C-3.66 18.02 -4.32 16.04 -5 14 C-4.79158457 8.26857559 -2.99142427 4.72838029 0 0 Z " fill="#D51009" transform="translate(867,540)"/>
<path d="M0 0 C0.66 0 1.32 0 2 0 C2.556875 1.03125 3.11375 2.0625 3.6875 3.125 C5.77145129 6.7924555 8.22036927 9.83430945 11 13 C10 14 10 14 7.04077148 14.11352539 C5.74727783 14.10828857 4.45378418 14.10305176 3.12109375 14.09765625 C2.09110008 14.09553383 2.09110008 14.09553383 1.04029846 14.09336853 C-1.16067801 14.08775479 -3.36155409 14.07520007 -5.5625 14.0625 C-7.05143083 14.05748676 -8.54036324 14.05292355 -10.02929688 14.04882812 C-13.68623075 14.03778093 -17.34310558 14.02050713 -21 14 C-21 13.34 -21 12.68 -21 12 C-11.76 11.67 -2.52 11.34 7 11 C4.69 8.36 2.38 5.72 0 3 C0 2.01 0 1.02 0 0 Z " fill="#D1100A" transform="translate(344,549)"/>
<path d="M0 0 C3.28729613 1.64364807 3.87554189 5.29317327 5.1875 8.5625 C8.47691098 16.37398727 11.77368822 22.48046798 19.25 26.9375 C24.14465717 28.32431953 28.93317522 28.73428948 34 29 C34 29.33 34 29.66 34 30 C18.94403635 30.82624191 18.94403635 30.82624191 13 26 C6.49528148 19.67596811 2.962496 11.44257102 0 3 C0 2.01 0 1.02 0 0 Z " fill="#D20F09" transform="translate(452,518)"/>
<path d="M0 0 C1.01726146 12.67943749 1.11427673 25.28539548 1 38 C0.67 38 0.34 38 0 38 C-1.08834175 30.68341683 -1.32457962 23.38723272 -1.5625 16 C-1.60568359 14.74832031 -1.64886719 13.49664062 -1.69335938 12.20703125 C-1.79877967 9.13812931 -1.89982871 6.06907775 -2 3 C-8.93 2.67 -15.86 2.34 -23 2 C-23 1.67 -23 1.34 -23 1 C-19.54170353 0.83256252 -16.08335707 0.66618079 -12.625 0.5 C-11.64015625 0.45230469 -10.6553125 0.40460938 -9.640625 0.35546875 C-8.69960938 0.31035156 -7.75859375 0.26523437 -6.7890625 0.21875 C-5.91975098 0.17685547 -5.05043945 0.13496094 -4.15478516 0.09179688 C-2.77077412 0.03283606 -1.38526637 0 0 0 Z " fill="#DC1009" transform="translate(510,402)"/>
<path d="M0 0 C8.39802254 -0.12190678 16.64251778 0.15672251 25 1 C25 1.33 25 1.66 25 2 C18.4 2.33 11.8 2.66 5 3 C6.98 5.31 8.96 7.62 11 10 C13 14 13 14 12.625 16.25 C12.41875 16.8275 12.2125 17.405 12 18 C11.72027344 17.35933594 11.44054687 16.71867187 11.15234375 16.05859375 C8.5731654 10.49387132 5.90874942 6.40345096 1.35546875 2.27734375 C0.90816406 1.85582031 0.46085937 1.43429687 0 1 C0 0.67 0 0.34 0 0 Z " fill="#D91009" transform="translate(95,401)"/>
<path d="M0 0 C2.475 0.99 2.475 0.99 5 2 C5 2.66 5 3.32 5 4 C-11.17 4 -27.34 4 -44 4 C-43.67 3.34 -43.34 2.68 -43 2 C-28.81 2 -14.62 2 0 2 C0 1.34 0 0.68 0 0 Z " fill="#E2120B" transform="translate(426,559)"/>
<path d="M0 0 C8.81288833 1.34859145 16.47373663 7.16892444 22 14 C25 19.12903226 25 19.12903226 25 22 C24.34 22 23.68 22 23 22 C22.06530755 20.49377587 21.20271066 18.94256377 20.375 17.375 C15.56591541 9.11921071 8.2765544 5.32986411 0 1 C0 0.67 0 0.34 0 0 Z " fill="#CE100A" transform="translate(184,481)"/>
<path d="M0 0 C7.59 0.33 15.18 0.66 23 1 C23 1.33 23 1.66 23 2 C17.06 2.33 11.12 2.66 5 3 C6.65 4.65 8.3 6.3 10 8 C9.67 8.66 9.34 9.32 9 10 C8.51789062 9.50628906 8.03578125 9.01257813 7.5390625 8.50390625 C6.90742187 7.86324219 6.27578125 7.22257812 5.625 6.5625 C4.99851562 5.92441406 4.37203125 5.28632813 3.7265625 4.62890625 C2.08276939 2.92117824 2.08276939 2.92117824 0 2 C0 1.34 0 0.68 0 0 Z " fill="#D9110A" transform="translate(848,462)"/>
<path d="M0 0 C0.33 0 0.66 0 1 0 C0.61375277 8.38156489 -1.5255343 16.01265489 -4 24 C-4.33 24 -4.66 24 -5 24 C-4.33518187 16.15514602 -3.55508721 7.11017441 0 0 Z " fill="#CE1009" transform="translate(335,515)"/>
<path d="M0 0 C1.2870655 3.57887246 0.7233248 5.58526266 -0.6875 9.0625 C-1.18830078 10.34833984 -1.18830078 10.34833984 -1.69921875 11.66015625 C-3.13161427 14.23674758 -4.54123418 15.42121352 -7 17 C-6.71125 16.484375 -6.4225 15.96875 -6.125 15.4375 C-4.86868653 12.87937949 -4.86868653 12.87937949 -4 9.5 C-3.20511495 6.71790232 -2.39046998 4.50284596 -1 2 C-0.67 1.34 -0.34 0.68 0 0 Z " fill="#D41009" transform="translate(767,542)"/>
<path d="M0 0 C0.33 0 0.66 0 1 0 C0.67 2.97 0.34 5.94 0 9 C3.465 8.505 3.465 8.505 7 8 C6.01 8.99 5.02 9.98 4 11 C2.02 10.34 0.04 9.68 -2 9 C-1.34 6.03 -0.68 3.06 0 0 Z " fill="#D20F08" transform="translate(797,501)"/>
<path d="M0 0 C2.22889496 -0.05428973 4.45817471 -0.09292338 6.6875 -0.125 C8.54955078 -0.15980469 8.54955078 -0.15980469 10.44921875 -0.1953125 C13.81237857 -0.01032021 15.9985587 0.54232105 19 2 C18.67 2.66 18.34 3.32 18 4 C17.071875 3.690625 16.14375 3.38125 15.1875 3.0625 C10.22128454 1.6216844 5.13794694 1.35305964 0 1 C0 0.67 0 0.34 0 0 Z " fill="#9F0C07" transform="translate(254,410)"/>
<path d="M0 0 C0.66 0.33 1.32 0.66 2 1 C0.90033225 2.29549899 -0.20491801 3.58626071 -1.3125 4.875 C-1.92738281 5.59429688 -2.54226563 6.31359375 -3.17578125 7.0546875 C-5 9 -5 9 -8 11 C-6.63629701 8.00779732 -5.05091917 5.70973471 -2.875 3.25 C-2.33617187 2.63640625 -1.79734375 2.0228125 -1.2421875 1.390625 C-0.62730469 0.70226562 -0.62730469 0.70226562 0 0 Z " fill="#D01009" transform="translate(870,525)"/>
<path d="M0 0 C1.65 0 3.3 0 5 0 C3.90101298 3.29696105 3.05402613 4.04670589 0.4375 6.1875 C-0.20316406 6.71730469 -0.84382812 7.24710937 -1.50390625 7.79296875 C-1.99761719 8.19128906 -2.49132812 8.58960938 -3 9 C-3.66 8.67 -4.32 8.34 -5 8 C-3.02 6.02 -1.04 4.04 1 2 C0.67 1.34 0.34 0.68 0 0 Z " fill="#D71009" transform="translate(933,463)"/>
<path d="M0 0 C0.66 0.33 1.32 0.66 2 1 C1.06409496 2.1055189 0.12620142 3.20935453 -0.8125 4.3125 C-1.33457031 4.92738281 -1.85664063 5.54226563 -2.39453125 6.17578125 C-3.87172469 7.85424679 -5.40039131 9.43882034 -7 11 C-7.33 10.34 -7.66 9.68 -8 9 C-6.85459775 7.68712379 -5.70866567 6.37470979 -4.5625 5.0625 C-3.92441406 4.33160156 -3.28632813 3.60070312 -2.62890625 2.84765625 C-1.77458541 1.87860647 -0.91348825 0.91348825 0 0 Z " fill="#D61009" transform="translate(445,413)"/>
<path d="M0 0 C2.39073445 3.82517513 2.55966552 7.59665524 3 12 C2.34 12 1.68 12 1 12 C-1.27678571 3.96428571 -1.27678571 3.96428571 0 0 Z " fill="#AD0D07" transform="translate(409,508)"/>
<path d="M0 0 C0.90105469 0.19464844 1.80210937 0.38929688 2.73046875 0.58984375 C3.41753906 0.74582031 4.10460937 0.90179687 4.8125 1.0625 C4.8125 1.3925 4.8125 1.7225 4.8125 2.0625 C0.5225 2.0625 -3.7675 2.0625 -8.1875 2.0625 C-8.1875 1.4025 -8.1875 0.7425 -8.1875 0.0625 C-4.80475734 -1.06508089 -3.41971777 -0.75500262 0 0 Z " fill="#DC1209" transform="translate(891.1875,560.9375)"/>
<path d="M0 0 C3.93673644 1.31224548 6.22719294 2.91910327 9 6 C4.58763974 6 3.21615077 3.9302707 0 1 C0 0.67 0 0.34 0 0 Z " fill="#D01009" transform="translate(181,404)"/>
</svg>
